<?xml version="1.0"?>
<svg version="1.1" xmlns="http://www.w3.org/2000/svg" width="400px" height="200px" style="border: dashed 2px #aaa"><path fill="#e9eef2" d="M50.8935546875,112.216796875q0-0.5126953125,0.3515625-0.65185546875t0.76171875-0.13916015625q0.7177734375,0,1.2158203125,0.64453125t0.94482421875,1.41357421875t0.88623046875,1.41357421875t1.0400390625,0.64453125q0.4541015625,0,0.82763671875-0.22705078125t0.64453125-0.5712890625t0.41748046875-0.7763671875t0.146484375-0.85693359375q0-1.11328125-0.44677734375-2.2998046875t-1.142578125-2.4462890625t-1.47216796875-2.578125t-1.46484375-2.6806640625t-1.142578125-2.77587890625t-0.4541015625-2.84912109375q0-2.1533203125,1.2890625-3.33984375t3.3984375-1.1865234375q0.7177734375,0,1.4501953125,0.205078125t1.34765625,0.615234375t1.00341796875,1.0107421875t0.38818359375,1.40625q0,0.263671875-0.38818359375,0.34423828125t-0.56396484375,0.08056640625q-0.263671875,0-0.5712890625-0.06591796875t-0.3955078125-0.35888671875t-0.2490234375-0.673828125t-0.40283203125-0.71044921875t-0.5712890625-0.5712890625t-0.72509765625-0.24169921875q-0.6591796875,0-1.12060546875,0.27099609375t-0.7470703125,0.72509765625t-0.4248046875,1.01806640625t-0.13916015625,1.16455078125q0,1.40625,0.4833984375,2.83447265625t1.201171875,2.841796875t1.56005859375,2.79052734375t1.56005859375,2.6806640625t1.201171875,2.548828125t0.4833984375,2.3583984375q0,0.99609375-0.46875,1.6845703125t-1.1865234375,1.12060546875t-1.58935546875,0.6298828125t-1.70654296875,0.19775390625q-0.8935546875,0-1.8310546875-0.35888671875t-1.6845703125-0.98876953125t-1.23046875-1.47216796875t-0.4833984375-1.82373046875z M64.072314453125,92.8369140625q0-0.29296875,0.4541015625-0.41748046875t0.7470703125-0.12451171875q0.3369140625,0,0.73974609375,0.087890625t0.49072265625,0.4541015625q0.4248046875,1.7138671875,0.65185546875,3.49365234375t0.34423828125,3.58154296875t0.1904296875,3.58154296875t0.1611328125,3.52294921875q0.3955078125-1.7431640625,0.81298828125-3.46435546875t1.09130859375-3.43505859375l0-1.171875q0-0.7470703125,0.52001953125-1.07666015625t1.39892578125-0.32958984375q0.087890625,0,0.40283203125,0.0439453125t0.31494140625,0.29296875q-0.05859375,0.17578125-0.13916015625,0.3369140625t-0.08056640625,0.3515625q0,2.2265625,0.52734375,4.56298828125t1.0400390625,4.54833984375q0.29296875-1.8896484375,0.673828125-3.7646484375t0.791015625-3.7353515625q0.5419921875-2.490234375,0.82763671875-4.13818359375t0.5419921875-2.607421875t0.556640625-1.3623046875t0.84228515625-0.40283203125q0.3369140625-0.029296875,0.6298828125,0.1171875t0.234375,0.4833984375q-1.0546875,5.09765625-1.97021484375,10.224609375t-1.86767578125,10.25390625q0,0.29296875,0.1025390625,0.6884765625t0.1025390625,0.703125q0,0.17578125-0.1611328125,0.29296875t-0.38818359375,0.19775390625t-0.498046875,0.10986328125t-0.47607421875,0.029296875q-0.4541015625,0-0.9521484375-0.13916015625t-0.64453125-0.79833984375q-0.5126953125-2.28515625-0.94482421875-4.59228515625t-0.79833984375-4.65087890625q-0.1171875,0.5419921875-0.2197265625,1.0986328125t-0.1904296875,1.1279296875q-0.4248046875,2.490234375-0.9375,4.98046875t-0.5126953125,5.0390625q0,0.6298828125-0.263671875,0.81298828125t-0.8935546875,0.18310546875q-0.4833984375,0-0.8203125-0.1611328125q-0.263671875-0.146484375-0.498046875-0.263671875q-0.205078125-0.1171875-0.37353515625-0.27099609375t-0.16845703125-0.30029296875q-0.234375-3.1787109375-0.32958984375-6.3134765625t-0.21240234375-6.3134765625q-0.1171875-2.8564453125-0.34423828125-5.70556640625t-0.50537109375-5.66162109375z M81.77744140625,114.6630859375q0-0.087890625,0.05859375-0.62255859375t0.15380859375-1.3037109375t0.21240234375-1.6552734375t0.205078125-1.67724609375t0.15380859375-1.3916015625t0.06591796875-0.8056640625q-0.1171875-0.05859375-0.28564453125-0.16845703125t-0.16845703125-0.25634765625q0-0.205078125,0.19775390625-0.32958984375t0.34423828125-0.18310546875q0.05859375-0.7470703125,0.146484375-2.080078125t0.27099609375-2.87841796875t0.5126953125-3.134765625t0.87158203125-2.8857421875t1.3037109375-2.11669921875t1.875-0.8203125t1.845703125,0.703125t1.19384765625,1.8310546875t0.703125,2.5048828125t0.3662109375,2.7392578125t0.15380859375,2.548828125t0.05859375,1.904296875q0.029296875,0.4541015625,0.2197265625,0.60791015625t0.41748046875,0.21240234375t0.41015625,0.1318359375t0.18310546875,0.3662109375q0,0.3369140625-0.41015625,0.46875t-0.64453125,0.1611328125q0.146484375,1.8310546875,0.40283203125,3.603515625t0.68115234375,3.57421875q0.05859375,0.3369140625,0.1611328125,0.68115234375t0.1025390625,0.66650390625q0,0.234375-0.1611328125,0.38818359375t-0.41748046875,0.24169921875t-0.5126953125,0.1171875t-0.43212890625,0.029296875q-0.6591796875,0-1.11328125-0.2490234375t-0.6005859375-0.9521484375q-0.3955078125-1.8896484375-0.7763671875-3.9697265625q-0.322265625-1.8017578125-0.322265625-3.5009765625q0-0.263671875,0.0146484375-0.52734375q-1.23046875,0-2.4755859375,0.05859375t-2.3876953125,0.439453125q-0.029296875,0.3955078125-0.146484375,1.494140625t-0.263671875,2.3583984375t-0.30029296875,2.40966796875t-0.18310546875,1.63330078125q-0.029296875,0.205078125-0.30029296875,0.38818359375t-0.5859375,0.19775390625t-0.556640625-0.19775390625t-0.24169921875-0.75439453125z M84.51669921875,105.7861328125q1.142578125-0.263671875,2.29248046875-0.3076171875t2.32177734375-0.1025390625q-0.05859375-0.3662109375-0.029296875-0.75439453125t0.029296875-0.78369140625q0-0.8642578125-0.0439453125-2.0068359375t-0.1318359375-2.314453125t-0.22705078125-2.30712890625t-0.31494140625-2.021484375t-0.37353515625-1.41357421875t-0.43212890625-0.52734375q-0.4541015625,0.029296875-0.85693359375,0.78369140625t-0.732421875,1.9189453125t-0.6005859375,2.607421875t-0.4541015625,2.81982421875t-0.30029296875,2.5634765625t-0.146484375,1.845703125z M96.538232421875,94.931640625q0-0.6884765625,0.16845703125-1.00341796875t0.4833984375-0.439453125t0.76171875-0.09521484375t1.04736328125,0.029296875q1.5234375,0,3.076171875,0.46875t2.7978515625,1.36962890625t2.0068359375,2.21923828125t0.76171875,3.0322265625q0,1.142578125-0.32958984375,2.16064453125t-0.93017578125,1.904296875t-1.40625,1.61865234375t-1.7724609375,1.2744140625q0.3955078125,0.3955078125,1.025390625,1.39892578125t1.2451171875,2.138671875t1.09130859375,2.20458984375t0.56396484375,1.611328125l-0.17578125,0.263671875q-0.3955078125,0.234375-0.9521484375,0.2490234375q-0.263671875,0-0.6884765625-0.06591796875t-0.5419921875-0.38818359375q-0.6005859375-1.6845703125-1.31103515625-3.4716796875t-1.75048828125-3.22265625l0-0.029296875q-0.3662109375,0.146484375-0.72509765625,0.28564453125t-0.72509765625,0.25634765625q0.1171875,1.6259765625,0.24169921875,3.20068359375t0.12451171875,3.18603515625q0,0.205078125-0.19775390625,0.32958984375t-0.44677734375,0.19775390625t-0.50537109375,0.1025390625t-0.41748046875,0.029296875q-0.146484375,0-0.41748046875-0.029296875t-0.52001953125-0.1025390625t-0.43212890625-0.21240234375t-0.18310546875-0.37353515625q0-1.6259765625-0.0732421875-3.24462890625t-0.1611328125-3.22998046875q-0.4541015625-0.29296875-0.4541015625-0.76171875q0-0.3662109375,0.3515625-0.498046875q-0.17578125-3.0908203125-0.40283203125-6.1669921875t-0.22705078125-6.1962890625z M99.189599609375,94.4775390625q0.205078125,3.1787109375,0.46142578125,6.2841796875t0.49072265625,6.2841796875q1.025390625-0.29296875,1.91162109375-1.01806640625t1.53076171875-1.63330078125t1.00341796875-1.9775390625t0.35888671875-2.1240234375q0-1.171875-0.46875-2.24853515625t-1.2451171875-1.88232421875q-0.791015625-0.8056640625-1.81640625-1.259765625q-0.908203125-0.3955078125-1.904296875-0.3955078125l-0.263671875,0z M110.551953125,114.6630859375q0-0.087890625,0.05859375-0.62255859375t0.15380859375-1.3037109375t0.21240234375-1.6552734375t0.205078125-1.67724609375t0.15380859375-1.3916015625t0.06591796875-0.8056640625q-0.1171875-0.05859375-0.28564453125-0.16845703125t-0.16845703125-0.25634765625q0-0.205078125,0.19775390625-0.32958984375t0.34423828125-0.18310546875q0.05859375-0.7470703125,0.146484375-2.080078125t0.27099609375-2.87841796875t0.5126953125-3.134765625t0.87158203125-2.8857421875t1.3037109375-2.11669921875t1.875-0.8203125t1.845703125,0.703125t1.19384765625,1.8310546875t0.703125,2.5048828125t0.3662109375,2.7392578125t0.15380859375,2.548828125t0.05859375,1.904296875q0.029296875,0.4541015625,0.2197265625,0.60791015625t0.41748046875,0.21240234375t0.41015625,0.1318359375t0.18310546875,0.3662109375q0,0.3369140625-0.41015625,0.46875t-0.64453125,0.1611328125q0.146484375,1.8310546875,0.40283203125,3.603515625t0.68115234375,3.57421875q0.05859375,0.3369140625,0.1611328125,0.68115234375t0.1025390625,0.66650390625q0,0.234375-0.1611328125,0.38818359375t-0.41748046875,0.24169921875t-0.5126953125,0.1171875t-0.43212890625,0.029296875q-0.6591796875,0-1.11328125-0.2490234375t-0.6005859375-0.9521484375q-0.3955078125-1.8896484375-0.7763671875-3.9697265625q-0.322265625-1.8017578125-0.322265625-3.5009765625q0-0.263671875,0.0146484375-0.52734375q-1.23046875,0-2.4755859375,0.05859375t-2.3876953125,0.439453125q-0.029296875,0.3955078125-0.146484375,1.494140625t-0.263671875,2.3583984375t-0.30029296875,2.40966796875t-0.18310546875,1.63330078125q-0.029296875,0.205078125-0.30029296875,0.38818359375t-0.5859375,0.19775390625t-0.556640625-0.19775390625t-0.24169921875-0.75439453125z M113.2912109375,105.7861328125q1.142578125-0.263671875,2.29248046875-0.3076171875t2.32177734375-0.1025390625q-0.05859375-0.3662109375-0.029296875-0.75439453125t0.029296875-0.78369140625q0-0.8642578125-0.0439453125-2.0068359375t-0.1318359375-2.314453125t-0.22705078125-2.30712890625t-0.31494140625-2.021484375t-0.37353515625-1.41357421875t-0.43212890625-0.52734375q-0.4541015625,0.029296875-0.85693359375,0.78369140625t-0.732421875,1.9189453125t-0.6005859375,2.607421875t-0.4541015625,2.81982421875t-0.30029296875,2.5634765625t-0.146484375,1.845703125z M125.31274414062,111.07421875q0-0.6591796875,0.06591796875-1.57470703125t0.30029296875-1.51611328125q0.087890625-0.205078125,0.37353515625-0.40283203125t0.6005859375-0.24169921875t0.556640625,0.0732421875t0.24169921875,0.5126953125q0,0.6884765625-0.029296875,1.7431640625l0,0.4541015625q0,0.8056640625,0.0732421875,1.5380859375q0.1025390625,0.966796875,0.439453125,1.6259765625q0.29296875,0.6005859375,0.9228515625,0.6005859375l0.1171875,0q0.8642578125-0.05859375,1.2744140625-0.7177734375t0.556640625-1.5673828125q0.1318359375-0.8349609375,0.1318359375-1.7578125l0-0.17578125q-0.0146484375-1.025390625-0.0146484375-1.8017578125q0-3.0908203125-0.205078125-6.1962890625t-0.205078125-6.2255859375q0-0.5126953125-0.0439453125-1.11328125q-0.0146484375-0.2197265625-0.0146484375-0.439453125q0-0.3515625,0.0439453125-0.673828125q0.0732421875-0.5126953125,0.37353515625-0.85693359375t1.01806640625-0.34423828125q0.3955078125,0,0.72509765625,0.09521484375t0.59326171875,0.38818359375q0.3369140625,3.80859375,0.556640625,7.74169921875t0.2197265625,7.77099609375q0,1.318359375-0.2197265625,2.6513671875t-0.8056640625,2.40234375t-1.6259765625,1.7431640625t-2.6513671875,0.673828125q-0.966796875,0-1.611328125-0.34423828125t-1.03271484375-0.94482421875t-0.556640625-1.39892578125t-0.16845703125-1.72119140625z M137.29033203125,114.1650390625q0-0.3662109375,0.0439453125-0.73974609375t0.0439453125-0.73974609375l0-0.234375q0-0.4541015625,0.37353515625-0.5712890625t0.76904296875-0.1171875q0.4541015625,0,0.87158203125,0.1904296875t0.41748046875,0.732421875q0.087890625,0.263671875,0.087890625,0.6298828125l0,0.6884765625q0,0.5126953125-0.35888671875,0.71044921875t-0.95947265625,0.19775390625q-0.4248046875,0-0.85693359375-0.15380859375t-0.43212890625-0.59326171875z"/><path fill="#" d=""/></svg>
